<?xml version="1.0" encoding="UTF-8" standalone="no"?>
<!DOCTYPE svg PUBLIC "-//W3C//DTD SVG 1.1//EN"
 "http://www.w3.org/Graphics/SVG/1.1/DTD/svg11.dtd">
<!-- Generated by graphviz version 2.43.0 (0)
 -->
<!-- Title: displayAVL Pages: 1 -->
<svg width="395pt" height="78pt"
 viewBox="0.00 0.00 395.00 78.00" xmlns="http://www.w3.org/2000/svg" xmlns:xlink="http://www.w3.org/1999/xlink">
<g id="graph0" class="graph" transform="scale(1 1) rotate(0) translate(4 74)">
<title>displayAVL</title>
<polygon fill="white" stroke="transparent" points="-4,4 -4,-74 391,-74 391,4 -4,4"/>
<!-- Maille -->
<g id="node1" class="node">
<title>Maille</title>
<path fill="#e5e5e5" stroke="blue" d="M12,-0.5C12,-0.5 375,-0.5 375,-0.5 381,-0.5 387,-6.5 387,-12.5 387,-12.5 387,-57.5 387,-57.5 387,-63.5 381,-69.5 375,-69.5 375,-69.5 12,-69.5 12,-69.5 6,-69.5 0,-63.5 0,-57.5 0,-57.5 0,-12.5 0,-12.5 0,-6.5 6,-0.5 12,-0.5"/>
<text text-anchor="middle" x="116" y="-54.3" font-family="Times,serif" font-size="14.00" fill="red">EEIIMORST</text>
<polyline fill="none" stroke="blue" points="232,-46.5 232,-69.5 "/>
<text text-anchor="middle" x="309.5" y="-54.3" font-family="Times,serif" font-size="14.00" fill="red">0</text>
<polyline fill="none" stroke="blue" points="0,-46.5 387,-46.5 "/>
<text text-anchor="middle" x="193.5" y="-31.3" font-family="Times,serif" font-size="14.00" fill="red">ISOMETRIE, MIROITEES, MIROITEES, TROISIEME</text>
<polyline fill="none" stroke="blue" points="0,-23.5 387,-23.5 "/>
<text text-anchor="middle" x="96.5" y="-8.3" font-family="Times,serif" font-size="14.00" fill="red">NULL</text>
<polyline fill="none" stroke="blue" points="193,-0.5 193,-23.5 "/>
<text text-anchor="middle" x="290" y="-8.3" font-family="Times,serif" font-size="14.00" fill="red">NULL</text>
</g>
</g>
</svg>
